<?xml version="1.0" encoding="UTF-8" standalone="no"?>
<!-- Created with Inkscape (http://www.inkscape.org/) -->

<svg
   xmlns:dc="http://purl.org/dc/elements/1.1/"
   xmlns:cc="http://creativecommons.org/ns#"
   xmlns:rdf="http://www.w3.org/1999/02/22-rdf-syntax-ns#"
   xmlns:svg="http://www.w3.org/2000/svg"
   xmlns="http://www.w3.org/2000/svg"
   xmlns:sodipodi="http://sodipodi.sourceforge.net/DTD/sodipodi-0.dtd"
   xmlns:inkscape="http://www.inkscape.org/namespaces/inkscape"
   width="16"
   height="16"
   viewBox="0 0 16 16"
   id="svg2"
   version="1.1"
   inkscape:version="0.91 r13725"
   sodipodi:docname="globe.svg">
  <defs
     id="defs4" />
  <sodipodi:namedview
     id="base"
     pagecolor="#ffffff"
     bordercolor="#666666"
     borderopacity="1.0"
     inkscape:pageopacity="0.0"
     inkscape:pageshadow="2"
     inkscape:zoom="44.8"
     inkscape:cx="8.801084"
     inkscape:cy="7.3171337"
     inkscape:document-units="px"
     inkscape:current-layer="text4136"
     showgrid="false"
     units="px"
     inkscape:window-width="1920"
     inkscape:window-height="1017"
     inkscape:window-x="0"
     inkscape:window-y="0"
     inkscape:window-maximized="1" />
  <metadata
     id="metadata7">
    <rdf:RDF>
      <cc:Work
         rdf:about="">
        <dc:format>image/svg+xml</dc:format>
        <dc:type
           rdf:resource="http://purl.org/dc/dcmitype/StillImage" />
        <dc:title></dc:title>
      </cc:Work>
    </rdf:RDF>
  </metadata>
  <g
     inkscape:label="Layer 1"
     inkscape:groupmode="layer"
     id="layer1"
     transform="translate(0,-1036.3622)">
    <g
       style="font-style:normal;font-weight:normal;font-size:18.66666603px;line-height:125%;font-family:sans-serif;letter-spacing:0px;word-spacing:0px;fill:#000000;fill-opacity:1;stroke:none;stroke-width:1px;stroke-linecap:butt;stroke-linejoin:miter;stroke-opacity:1"
       id="text4136">
      <path
         d="m 7.9999997,1036.3621 c -4.4166665,0 -7.9999997,3.5834 -7.9999997,8 0,4.4167 3.5833332,8 7.9999997,8 4.4166663,0 7.9999993,-3.5833 7.9999993,-8 0,-4.4166 -3.583333,-8 -7.9999993,-8 z m 2.8541663,5.4271 c 0.114584,-0.073 0.302084,-0.1666 0.447917,-0.125 0.114583,0.031 0.208333,0.073 0.07292,0.1667 -0.0625,0.042 -0.15625,0 -0.229167,0.021 0.09375,0.021 0.229167,0.062 0.1875,0.1563 0.270833,0.1562 -0.08333,0.3437 -0.260417,0.3229 0.08333,0.01 -0.177083,0.1667 -0.177083,0.1562 -0.09375,0.052 -0.21875,0.052 -0.291667,0.1459 -0.08333,0.1146 0.03125,0.3125 -0.125,0.2708 -0.0625,0.1354 -0.302083,0.062 -0.40625,0.2083 0.114584,0.125 -0.114583,0.3021 -0.2291663,0.1459 -0.1041667,0.042 -0.052083,0.1562 -0.15625,0.2187 0.041667,0.062 0.052083,0.125 -0.020833,0.1667 0.020833,-0.01 0.1458334,0.094 0.1770834,0.1042 -0.020833,0.052 -0.0625,0.094 -0.1145834,0.094 0.052083,0.1354 -0.0625,0.2813 -0.15625,0.3646 -0.1041666,0.083 -0.3437499,0.1667 -0.3749999,0.1875 -0.1875,0.1771 -0.3125,0.4375 0.020833,0.5104 0.010417,0 0.010417,0.3438 0.020833,0.3542 0.020833,0.125 0.072917,0.4896 -0.1458333,0.3541 -0.1041667,-0.052 -0.1666667,-0.3437 -0.1979167,-0.4583 -0.03125,-0.125 -0.041667,-0.125 -0.125,-0.25 -0.1354166,0.1563 -0.15625,0.042 -0.2708333,-0.031 -0.1145833,-0.062 -0.28125,-0.042 -0.34375,-0.1042 -0.15625,0.1146 -0.2708333,0.083 -0.3020833,-0.094 -0.041667,0.083 0.041667,0.2084 0.03125,0.2396 -0.052083,0.1042 -0.1458333,0.083 -0.2291667,0.021 -0.1354166,-0.1042 -0.4270833,0.073 -0.5833333,0 0.010417,0 0.052083,0.042 0.083333,0.062 -0.03125,0.125 -0.1041667,0.052 -0.1666667,0.094 -0.072917,0.052 -0.1354167,0.1563 -0.1979167,0.2083 0.1354167,0.2605 -0.010417,0.5105 0,0.7917 0,0.2083 0.1354167,0.5729 0.3333334,0.6875 0.09375,0.052 0.4062499,0.073 0.4999999,0.031 0.1458334,-0.062 0.125,-0.1771 0.1770834,-0.3021 0.052083,-0.1354 0.1145833,-0.1979 0.2708333,-0.2084 0.4479166,-0.021 0.1041667,0.3438 0.052083,0.5313 -0.03125,0.1354 -0.041667,0.2917 -0.0625,0.4167 0.052083,0.021 0.1041667,0.01 0.15625,0.01 0,-0.042 0.03125,-0.094 0.03125,-0.125 0.0625,0.1041 0.2708333,0.1354 0.3333333,0.01 0.072917,0.125 0.21875,0.2187 0.2395834,0.3646 0.020833,0.1458 0.15625,0.3021 -0.041667,0.3021 -0.1458333,0 0.020833,0.2916 0.041667,0.3437 0.1145833,0.2083 0.3020833,0.2917 0.5104166,0.1875 0,0.083 -0.03125,0.3125 -0.1458333,0.3333 -0.1041667,0.021 -0.3020833,-0.1979 -0.2604167,-0.3125 -0.010417,0.042 -0.041667,0.073 -0.072917,0.094 -0.1041667,-0.125 -0.28125,-0.1875 -0.375,-0.3125 -0.020833,-0.031 -0.3020833,-0.4583 -0.2395833,-0.4792 -0.1458334,0.062 -0.4375,-0.042 -0.5729167,-0.1146 -0.21875,-0.1145 -0.25,-0.4166 -0.5208333,-0.375 -0.1875,0.031 -0.2395833,0.1042 -0.4583333,0.021 -0.1458334,-0.052 -0.2708334,-0.1563 -0.4166667,-0.2292 -0.1666666,-0.094 -0.4583333,-0.1875 -0.5208333,-0.3958 -0.0625,-0.1667 -0.041667,-0.3646 -0.1354167,-0.5209 -0.0625,-0.1041 -0.2499999,-0.3125 -0.3854166,-0.3125 0.125,0 -0.1145833,-0.3125 -0.1458333,-0.3437 -0.1145834,-0.1354 -0.53125,-0.5 -0.4479167,-0.7083 0.020833,-0.031 -0.2083333,-0.1146 -0.25,-0.125 0.041667,0.1041 0.052083,0.2187 0.1041667,0.3125 0.052083,0.1041 0.1145833,0.1979 0.1770833,0.302 0.1145833,0.1875 0.2708333,0.4167 0.25,0.6459 -0.1354167,0.042 -0.09375,-0.1563 -0.1354167,-0.2396 -0.072917,-0.1354 -0.2708333,-0.1354 -0.3229166,-0.2813 0.020833,-0.01 0.03125,-0.01 0.052083,-0.021 0.010417,-0.1771 -0.25,-0.3229 -0.2083333,-0.4479 -0.1458333,-0.1146 -0.1458333,-0.3333 -0.25,-0.4792 -0.09375,-0.1354 -0.25,-0.1979 -0.3854167,-0.2916 -0.052083,-0.031 -0.4270833,-0.5105 -0.2916666,-0.5417 -0.2083333,0.052 -0.3125,-0.4375 -0.28125,-0.5625 0,0 -0.020833,0 -0.020833,-0.01 0.041667,-0.125 -0.03125,-0.7709 0.1354166,-0.7813 -0.1145833,0.01 -0.1458333,-0.2708 -0.1145833,-0.3229 0.020833,-0.042 0.1770833,0.1146 0.1875,0.1354 0.0625,-0.031 0.125,-0.1146 0.1041667,-0.1875 -0.03125,-0.083 -0.1458334,-0.1562 -0.21875,-0.2187 -0.03125,-0.021 -0.4479167,-0.2917 -0.4583334,-0.2813 0.041667,-0.073 0.03125,-0.1458 -0.03125,-0.1979 -0.1979166,0.1563 -0.09375,-0.1458 -0.1979166,-0.1771 -0.041667,-0.01 -0.083333,-0.042 -0.125,-0.083 0.6041666,-0.9583 1.4479166,-1.7604 2.4479166,-2.3125 0.0625,-0.01 0.1458333,-0.01 0.2291666,-0.01 0.1875,0.021 0.2916667,0.1771 0.4270833,0.2708 0.020833,-0.052 -0.020833,-0.1354 -0.052083,-0.1875 0.03125,-0.083 0.15625,-0.1042 0.2291667,-0.125 0.09375,-0.01 0.2291666,-0.031 0.3125,0.01 -0.0625,-0.094 -0.1354167,-0.1771 -0.2083334,-0.2604 -0.010417,0.01 -0.041667,0.031 -0.052083,0.052 -0.1145833,-0.094 -0.3333333,0.031 -0.4375,0.073 -0.083333,0.042 -0.15625,0.094 -0.2395833,0.125 -0.052083,0.021 -0.083333,0.021 -0.125,0.01 0.3125,-0.1666 0.6354166,-0.3125 0.9791666,-0.4271 0.0625,0.042 0.125,0.1146 0.21875,0.1875 -0.0625,-0.052 -0.0625,0.1875 -0.041667,0.2292 0.1145833,0.1563 0.3645833,0.052 0.5208333,0.052 -0.010417,0 0.4583333,0.062 0.3645833,-0.052 0.072917,0.1042 0.072917,0.2604 0.1666667,0.3542 0.09375,-0.094 -0.041667,-0.1979 0.020833,-0.2917 0.020833,-0.042 0.2083333,-0.094 0.2708333,-0.125 0.072917,-0.052 -0.052083,-0.125 -0.083333,-0.1458 -0.1041667,-0.062 -0.5104167,-0.094 -0.3125,-0.3334 0.072917,-0.083 0.3333333,-0.042 0.4166666,0.01 0.1145834,0.062 0.2395834,0.177 0.083333,0.2812 0.072917,0.01 0.4166666,0.1042 0.3645833,0.2396 0.03125,-0.062 0.083333,-0.1563 0.1666667,-0.1563 0.09375,0.01 0.1145833,0.2292 0.15625,0.2813 0.1458333,0.2604 0.3958333,-0.2604 0.4374999,-0.2396 -0.1875,-0.073 0.1666667,-0.1667 0.2604167,-0.1354 0.072917,0.031 0.1875,0.2812 0.052083,0.2708 0.1145834,0.1042 0.125,0.3334 -0.083333,0.3229 -0.1458333,-0.01 -0.3125,-0.2083 -0.4479167,-0.052 -0.09375,0.1041 -0.1354166,0.2604 -0.2291666,0.3541 -0.1458333,0.1459 -0.34375,0.1354 -0.5208333,0.1146 0.072917,0.01 -0.15625,0.25 -0.1770834,0.2917 -0.0625,0.073 -0.1041666,0.1562 -0.125,0.2396 -0.020833,0.1041 0,0.2187 -0.052083,0.3229 0.1770833,-0.052 0.2708333,0.2708 0.1979167,0.2812 0.21875,-0.031 0.3958333,-0.031 0.6041666,0.042 0.1458334,0.052 0.3645833,0.1146 0.4270833,0.2708 0.041667,-0.062 0.2395834,-0.031 0.3020834,-0.01 0.125,0.062 0.1354166,0.1979 0.1666666,0.3125 0.041667,0.1563 0.1770834,0.4167 0.3541667,0.3333 0.03125,-0.021 0.2604166,-0.125 0.1770833,-0.1875 -0.083333,-0.073 -0.1770833,-0.2604 -0.09375,-0.3645 0.083333,-0.1146 0.28125,-0.1459 0.3333333,-0.2917 0.083333,-0.2396 -0.25,-0.2083 -0.25,-0.3854 0,-0.1042 0.1354167,-0.1354 0.125,-0.2604 0,-0.1042 -0.15625,-0.3125 -0.03125,-0.3855 0.1041667,-0.062 0.6041667,0.042 0.6979167,0.1042 0.09375,0.062 0.385417,0.1458 0.40625,0.2396 -0.02083,0 -0.03125,0 -0.05208,0 0.08333,0.073 0.15625,0.2292 0.01042,0.2708 0.09375,-0.021 0.364584,0.083 0.177084,0.1459 0.0625,-0.031 0.114583,-0.01 0.177083,-0.052 0.07292,-0.042 0.114583,-0.1146 0.208333,-0.062 0.02083,0.01 0.135417,-0.2188 0.197917,-0.2084 0.09375,0.01 0.114583,0.1459 0.15625,0.2084 0.04167,0.094 0.15625,0.125 0.197917,0.2187 0.07292,0.1771 0.04167,0.3438 0.28125,0.4063 0.07292,0.021 0.270833,-0.094 0.260416,0.062 0.04167,-0.042 0.0625,-0.073 0.0625,-0.083 0.01042,0.1459 0.07292,0.3125 0.25,0.2917 0,0 0,0.1979 -0.02083,0.2292 -0.0625,0.094 -0.21875,0.073 -0.3125,0.125 -0.03125,0.01 -0.28125,0.2291 -0.25,0.2604 -0.135417,-0.1563 -0.354167,-0.1563 -0.53125,-0.1146 -0.1875,0.031 -0.364583,0.052 -0.541667,0.125 -0.08333,0.042 -0.166666,0.083 -0.229166,0.1563 -0.03125,0.042 -0.08333,0.2291 -0.135417,0.2395 0.104167,-0.021 0.15625,-0.1354 0.239583,-0.1979 z m -1.6979163,9.1354 c -0.010417,-0.052 -0.020833,-0.1562 -0.020833,-0.1666 -0.010417,-0.1667 0.1666666,-0.2813 0.15625,-0.4375 -0.1145834,-0.031 -0.1458334,-0.1459 -0.125,-0.2709 0.020833,-0.177 0.1770833,-0.302 0.3020833,-0.4166 0.125,-0.1146 0.15625,-0.3542 0.125,-0.5 -0.052083,-0.25 -0.052083,-0.5104 -0.09375,-0.7604 0.010417,0.062 0.1875,0.042 0.21875,0.125 0.041667,-0.073 0.0625,-0.1667 0.1145833,-0.2396 0.041667,-0.062 0.1145833,-0.083 0.177083,-0.1354 0.104167,-0.062 0.322917,-0.3021 0.447917,-0.1563 0.104167,0.125 -0.15625,0.2604 -0.02083,0.375 0.04167,-0.083 0,-0.2083 0.08333,-0.2917 0.166667,-0.1875 0.28125,0.021 0.447917,0.073 0.177083,0.052 0.239583,0.1145 0.375,0.2291 -0.04167,-0.042 0.166666,-0.1146 0.1875,-0.125 0.197916,-0.042 0.28125,0.073 0.416666,0.1771 0.145834,0.1042 0.375,0.1771 0.354167,0.3854 0.104167,0.021 0.166667,0.052 0.25,0.083 0.08333,0.042 0.197917,0.021 0.260417,0.083 -0.958334,1.0104 -2.229167,1.7187 -3.6562503,1.9687 z"
         style="font-style:normal;font-variant:normal;font-weight:normal;font-stretch:normal;font-family:FontAwesome;-inkscape-font-specification:FontAwesome;fill:#787878;fill-opacity:1"
         id="path4141" />
    </g>
  </g>
</svg>
