<?xml version="1.0" encoding="utf-8"?>
<!-- Generator: Adobe Illustrator 20.1.0, SVG Export Plug-In . SVG Version: 6.00 Build 0)  -->
<svg version="1.1" id="Слой_1" xmlns="http://www.w3.org/2000/svg" xmlns:xlink="http://www.w3.org/1999/xlink" x="0px" y="0px"
	 viewBox="0 0 50 50" style="enable-background:new 0 0 50 50;" xml:space="preserve">
<style type="text/css">
	.st0{fill-rule:evenodd;clip-rule:evenodd;fill:#FFFFFF;}
	.st1{fill:#FFFFFF;}
	.st2{fill:#FFFFFF;stroke:#727271;stroke-width:0.5;}
	.st3{fill:#7CCCE3;}
	.st4{fill:#9D9D9C;stroke:#FFFFFF;stroke-width:0.565;stroke-linecap:round;stroke-linejoin:round;}
	.st5{fill:#9ECA7D;}
	.st6{fill:#EF8F8F;}
	.st7{fill:#FAF199;}
	.st8{fill:#D7ABD0;}
	.st9{fill:#8C8B5A;}
	.st10{fill:#7DAEC6;}
	.st11{fill:#FBC780;}
	.st12{fill:#E7432A;}
	.st13{fill:#1F1F1F;}
	.st14{fill:#E2AF04;}
	.st15{fill:#020203;}
	.st16{fill-rule:evenodd;clip-rule:evenodd;fill:#1F1F1F;}
</style>
<g>
	<path class="st16" d="M39.9,32c0.5-1.4-2-4.3-3.8-5l-21.2-7.4l-3.1-6c-0.9-0.3-1.5-0.5-1.5-0.5s-0.4,4.7-0.1,7.9
		c0.2,1.5,6.1,5.1,9.3,6.2l1.8,0.6l-9.8,7.9c-0.2,0.2-0.2,0.4,0.1,0.4l2.6,0.9c0.2,0.1,0.6,0.1,0.9,0l13.7-6.6l7,2.5
		C37.6,33.4,39.6,32.9,39.9,32L39.9,32 M39.9,32"/>
	<path class="st16" d="M20,13.9l1.4,6.4l5.7,2l-3.5-7.2c-0.1-0.2-0.4-0.5-0.6-0.6l-2.6-0.9C20.1,13.5,20,13.7,20,13.9L20,13.9
		 M20,13.9"/>
</g>
</svg>
