<?xml version="1.0" encoding="utf-8"?>
<!-- Generator: Adobe Illustrator 20.1.0, SVG Export Plug-In . SVG Version: 6.00 Build 0)  -->
<svg version="1.1" id="Слой_1" xmlns="http://www.w3.org/2000/svg" xmlns:xlink="http://www.w3.org/1999/xlink" x="0px" y="0px"
	 viewBox="0 0 50 50" style="enable-background:new 0 0 50 50;" xml:space="preserve">
<style type="text/css">
	.st0{fill-rule:evenodd;clip-rule:evenodd;fill:#FFFFFF;}
	.st1{fill:#FFFFFF;}
	.st2{fill:#FFFFFF;stroke:#727271;stroke-width:0.5;}
	.st3{fill:#7CCCE3;}
	.st4{fill:#9D9D9C;stroke:#FFFFFF;stroke-width:0.565;stroke-linecap:round;stroke-linejoin:round;}
	.st5{fill:#9ECA7D;}
	.st6{fill:#EF8F8F;}
	.st7{fill:#FAF199;}
	.st8{fill:#D7ABD0;}
	.st9{fill:#8C8B5A;}
	.st10{fill:#7DAEC6;}
	.st11{fill:#FBC780;}
	.st12{fill:#E7432A;}
	.st13{fill:#1F1F1F;}
	.st14{fill:#E2AF04;}
	.st15{fill:#020203;}
	.st16{fill-rule:evenodd;clip-rule:evenodd;fill:#1F1F1F;}
</style>
<path class="st16" d="M17.2,11.5c2.4-1.4,5-2.1,7.8-2.1s5.4,0.7,7.8,2.1c2.4,1.4,4.3,3.3,5.7,5.7c1.4,2.4,2.1,5,2.1,7.8
	s-0.7,5.4-2.1,7.8c-1.4,2.4-3.3,4.3-5.7,5.7c-2.4,1.4-5,2.1-7.8,2.1s-5.4-0.7-7.8-2.1c-2.4-1.4-4.3-3.3-5.7-5.7
	c-1.4-2.4-2.1-5-2.1-7.8s0.7-5.4,2.1-7.8C12.9,14.8,14.8,12.9,17.2,11.5L17.2,11.5z M30.6,20c0,0-0.1,0.1-0.2,0.2
	c-0.1,0.1-0.2,0.2-0.3,0.2c0,0,0.1,0,0.1-0.1c0-0.1,0.1-0.1,0.1-0.2c0-0.1,0.1-0.1,0.1-0.1c0.1-0.1,0.2-0.2,0.4-0.3
	c0.2-0.1,0.5-0.2,1.1-0.2c0.5-0.1,0.8,0,1,0.2c0,0,0-0.1,0.2-0.3c0.2-0.1,0.3-0.2,0.3-0.2c0,0,0.1-0.1,0.3-0.1
	c0.2,0,0.3-0.1,0.3-0.2l0-0.4c-0.2,0-0.3,0-0.4-0.1c-0.1-0.1-0.1-0.2-0.1-0.4c0,0,0,0.1-0.1,0.2c0-0.1,0-0.1-0.1-0.2
	c-0.1,0-0.1,0-0.2,0c-0.1,0-0.2,0-0.2,0c-0.1,0-0.2-0.1-0.3-0.2c-0.1-0.1-0.1-0.2-0.2-0.3c0-0.2-0.1-0.3-0.1-0.3
	c0-0.1-0.1-0.1-0.2-0.2c-0.1-0.1-0.2-0.1-0.2-0.2c0,0,0-0.1-0.1-0.1c0-0.1,0-0.1-0.1-0.1c0,0-0.1-0.1-0.1-0.1c0,0-0.1-0.1-0.1-0.1
	c0,0-0.1,0-0.1,0.1c-0.1,0.1-0.1,0.1-0.2,0.2c-0.1,0.1-0.1,0.1-0.1,0.1c0,0-0.1,0-0.1,0c0,0-0.1,0-0.1,0c0,0-0.1,0-0.1,0.1
	c0,0-0.1,0.1-0.1,0.1c0,0-0.1,0.1-0.2,0.1c-0.1,0-0.1,0-0.2,0c0.2-0.1,0.2-0.1,0-0.2c-0.1-0.1-0.2-0.1-0.3-0.1
	c0.1-0.1,0.2-0.1,0.2-0.2c0-0.1-0.1-0.2-0.2-0.3h0.1c0-0.1-0.1-0.1-0.2-0.2c-0.1-0.1-0.2-0.1-0.4-0.2c-0.1-0.1-0.2-0.1-0.3-0.1
	c-0.1-0.1-0.3-0.1-0.7-0.2c-0.4-0.1-0.6-0.1-0.7,0c-0.1,0.1-0.1,0.2-0.1,0.2c0,0.1,0,0.2,0.1,0.3c0.1,0.1,0.1,0.2,0.1,0.3
	c0,0.1,0,0.2-0.1,0.3C28,16.5,28,16.6,28,16.6c0,0.1,0.1,0.2,0.3,0.3c0.2,0.1,0.3,0.3,0.2,0.4c0,0.1-0.1,0.2-0.3,0.3
	c-0.2,0.1-0.3,0.2-0.3,0.2c-0.1,0.1-0.1,0.2,0,0.4c0.1,0.1,0.1,0.3,0.2,0.3c0,0,0,0.1,0,0.1c0,0,0,0.1-0.1,0.1c0,0-0.1,0.1-0.1,0.1
	c0,0-0.1,0-0.1,0.1l-0.1,0c-0.1,0.1-0.3,0-0.4-0.1c-0.1-0.1-0.2-0.3-0.3-0.5c-0.1-0.3-0.2-0.5-0.3-0.6c-0.3-0.1-0.5-0.1-0.6,0
	c-0.1-0.2-0.3-0.4-0.8-0.5c-0.3-0.1-0.7-0.1-1.2-0.1c0.1,0,0.1-0.1,0-0.3c-0.1-0.2-0.2-0.3-0.4-0.2c0-0.1,0.1-0.2,0.1-0.4
	c0-0.2,0-0.2,0-0.3c0-0.2,0.1-0.3,0.2-0.5c0,0,0.1-0.1,0.1-0.2c0.1-0.1,0.1-0.2,0.2-0.3c0.1-0.1,0.1-0.1,0-0.1c0.5,0.1,0.8,0,1-0.2
	c0.1-0.1,0.1-0.2,0.2-0.3c0.1-0.2,0.2-0.3,0.2-0.3c0.1-0.1,0.2-0.1,0.3-0.1c0.1,0,0.2,0,0.3,0.1c0.1,0.1,0.2,0.1,0.3,0.1
	c0.2,0,0.3-0.1,0.3-0.2c0-0.2,0-0.3-0.2-0.4c0.2,0,0.2-0.1,0.1-0.3c-0.1-0.1-0.1-0.2-0.2-0.2c-0.2-0.1-0.3,0-0.6,0.1
	c-0.1,0.1-0.1,0.1,0,0.2c0,0-0.1,0.1-0.2,0.2c-0.1,0.2-0.2,0.3-0.3,0.4c-0.1,0.1-0.2,0.1-0.3-0.1c0,0-0.1-0.1-0.1-0.3
	c-0.1-0.2-0.1-0.3-0.2-0.3c-0.1,0-0.2,0.1-0.3,0.3c0-0.1,0-0.2-0.2-0.3c-0.2-0.1-0.4-0.1-0.5-0.2c0.3-0.2,0.2-0.3-0.2-0.6
	c-0.1-0.1-0.2-0.1-0.4-0.1c-0.2,0-0.3,0-0.4,0.1c-0.1,0.1-0.1,0.2-0.1,0.2c0,0.1,0,0.1,0.1,0.2c0.1,0.1,0.1,0.1,0.2,0.1
	c0.1,0,0.1,0.1,0.2,0.1c0.1,0,0.1,0.1,0.2,0.1c0.2,0.1,0.2,0.2,0.2,0.3c0,0-0.1,0-0.2,0.1c-0.1,0-0.2,0.1-0.2,0.1
	c-0.1,0-0.1,0.1-0.1,0.1c0,0.1,0,0.1,0,0.3c0,0.1,0,0.2,0,0.3c-0.1-0.1-0.1-0.2-0.2-0.4c-0.1-0.2-0.1-0.3-0.1-0.3
	c0.1,0.1-0.1,0.2-0.5,0.1l-0.2,0c-0.1,0-0.2,0-0.3,0c-0.2,0-0.3,0-0.4,0c-0.1,0-0.2-0.1-0.3-0.2c-0.1-0.1-0.1-0.2,0-0.4
	c0-0.1,0-0.1,0.1,0c-0.1,0-0.1-0.1-0.2-0.2c-0.1-0.1-0.2-0.1-0.2-0.2c-0.6,0.2-1.3,0.5-1.9,0.8c0.1,0,0.2,0,0.2,0
	c0.1,0,0.2-0.1,0.3-0.1c0.1-0.1,0.2-0.1,0.2-0.1c0.5-0.2,0.7-0.2,0.9-0.1l0.1-0.1c0.2,0.2,0.3,0.4,0.4,0.5c-0.1-0.1-0.3-0.1-0.6,0
	c-0.3,0.1-0.4,0.2-0.4,0.2c0.1,0.2,0.1,0.3,0.1,0.4c-0.1,0-0.1-0.1-0.2-0.2c-0.1-0.1-0.2-0.2-0.3-0.2c-0.1-0.1-0.2-0.1-0.3-0.1
	c-0.2,0-0.4,0-0.4,0c-2,1.1-3.6,2.6-4.8,4.5c0.1,0.1,0.2,0.1,0.2,0.2c0.1,0,0.1,0.1,0.1,0.2c0,0.1,0,0.2,0.1,0.2c0,0,0.1,0,0.2-0.1
	c0.1,0.1,0.1,0.2,0.1,0.4c0,0,0.3,0.2,0.9,0.6C15.8,19.8,16,20,16,20c0,0.1,0,0.3-0.2,0.4c0,0-0.1-0.1-0.2-0.2
	c-0.1-0.1-0.2-0.1-0.2-0.1c0,0.1,0,0.2,0,0.4c0.1,0.2,0.1,0.3,0.2,0.3c-0.1,0-0.2,0.1-0.2,0.3c0,0.2-0.1,0.5-0.1,0.7
	c0,0.3,0,0.4,0,0.5l0,0c0,0.2,0,0.4,0.1,0.7c0.1,0.3,0.3,0.4,0.4,0.4c-0.2,0,0,0.3,0.4,0.9c0.1,0.1,0.1,0.2,0.2,0.2
	c0,0,0.1,0.1,0.2,0.2c0.1,0.1,0.2,0.1,0.3,0.2c0.1,0.1,0.1,0.1,0.2,0.2c0.1,0.1,0.1,0.2,0.2,0.5c0.1,0.2,0.2,0.4,0.3,0.5
	c0,0.1,0,0.2,0.2,0.4c0.2,0.2,0.2,0.3,0.2,0.5c0,0,0,0-0.1,0c0,0,0,0-0.1,0c0,0.1,0.1,0.2,0.3,0.3c0.2,0.1,0.3,0.2,0.3,0.3
	c0,0,0,0.1,0,0.2c0,0.1,0,0.2,0.1,0.2c0,0.1,0.1,0.1,0.2,0c0-0.3-0.1-0.7-0.5-1.3c-0.2-0.3-0.3-0.5-0.3-0.6c0-0.1-0.1-0.2-0.1-0.3
	c0-0.1-0.1-0.2-0.1-0.3c0,0,0.1,0,0.1,0c0.1,0,0.1,0,0.2,0.1c0.1,0,0.1,0.1,0.2,0.1c0,0,0.1,0.1,0,0.1c0,0.1,0,0.2,0,0.4
	c0.1,0.1,0.1,0.3,0.2,0.4c0.1,0.1,0.2,0.2,0.3,0.4c0.1,0.1,0.2,0.2,0.2,0.3c0.1,0.1,0.2,0.2,0.3,0.4c0.1,0.2,0.1,0.3,0,0.3
	c0.1,0,0.3,0.1,0.4,0.2c0.1,0.1,0.3,0.3,0.3,0.4c0.1,0.1,0.1,0.3,0.2,0.5c0,0.2,0.1,0.4,0.1,0.5c0,0.1,0.1,0.2,0.2,0.3
	c0.1,0.1,0.2,0.2,0.3,0.2c0.1,0,0.2,0.1,0.3,0.2c0.1,0.1,0.2,0.1,0.3,0.1c0.1,0,0.2,0.1,0.4,0.2c0.2,0.1,0.3,0.2,0.4,0.2
	c0.1,0.1,0.2,0.1,0.3,0.1c0.1,0,0.2,0,0.3-0.1c0.1,0,0.2-0.1,0.3-0.1c0.2,0,0.4,0.1,0.6,0.3c0.2,0.2,0.3,0.4,0.4,0.4
	c0.5,0.3,0.9,0.3,1.1,0.2c0,0,0,0.1,0,0.2c0,0.1,0.1,0.2,0.2,0.3c0.1,0.1,0.1,0.2,0.2,0.3c0.1,0.1,0.1,0.1,0.1,0.2
	c0.1,0.1,0.2,0.2,0.4,0.3c0.2,0.1,0.3,0.2,0.4,0.3c0.1-0.1,0.1-0.1,0.1-0.2c0,0.1,0,0.2,0.1,0.4c0.1,0.2,0.3,0.2,0.4,0.2
	c0.2,0,0.3-0.3,0.3-0.7c-0.4,0.2-0.7,0.1-1-0.4c0,0,0-0.1-0.1-0.1c0-0.1-0.1-0.1-0.1-0.2c0-0.1,0-0.1-0.1-0.2c0-0.1,0-0.1,0-0.2
	c0,0,0.1-0.1,0.1-0.1c0.1,0,0.2,0,0.2-0.1c0-0.1,0-0.1,0-0.3s-0.1-0.2-0.1-0.3c0-0.1-0.1-0.2-0.2-0.4c-0.1-0.2-0.2-0.3-0.2-0.3
	c-0.1,0.1-0.2,0.2-0.3,0.2s-0.3-0.1-0.3-0.2c0,0,0,0.1,0,0.1c0,0.1,0,0.1,0,0.1c-0.2,0-0.3,0-0.3,0c0,0,0-0.2,0.1-0.4
	c0-0.2,0-0.3,0.1-0.5c0-0.1,0.1-0.1,0.1-0.2c0.1-0.1,0.1-0.2,0.2-0.3c0-0.1,0.1-0.2,0.1-0.3c0-0.1,0-0.1-0.1-0.2
	c-0.1-0.1-0.2-0.1-0.4-0.1c-0.3,0-0.4,0.1-0.5,0.4c0,0,0,0.1-0.1,0.2c0,0.1-0.1,0.2-0.1,0.2c0,0.1-0.1,0.1-0.2,0.1
	c-0.1,0-0.3,0.1-0.5,0c-0.2,0-0.4-0.1-0.5-0.1c-0.2-0.1-0.3-0.3-0.5-0.6c-0.1-0.3-0.2-0.5-0.2-0.7c0-0.1,0-0.3,0.1-0.5
	c0-0.2,0.1-0.4,0.1-0.5c0-0.1,0-0.3-0.1-0.5c0,0,0.1-0.1,0.2-0.2c0.1-0.1,0.1-0.2,0.2-0.2c0,0,0.1,0,0.1,0c0,0,0.1,0,0.1,0
	c0,0,0.1,0,0.1,0c0,0,0.1-0.1,0.1-0.1c0,0,0,0-0.1-0.1c0,0-0.1-0.1-0.1-0.1c0.1,0,0.3,0,0.6,0c0.3-0.1,0.5-0.1,0.6,0
	c0.2,0.1,0.4,0.1,0.4,0c0,0,0-0.1-0.1-0.2c0-0.1,0-0.2,0-0.3c0.1,0.4,0.3,0.4,0.6,0.2c0,0,0.1,0.1,0.3,0.1c0.2,0,0.3,0.1,0.4,0.1
	c0,0,0.1,0.1,0.1,0.1c0.1,0.1,0.1,0.1,0.1,0.1c0,0,0.1,0,0.1,0c0.1,0,0.1-0.1,0.2-0.1c0.1,0.2,0.2,0.4,0.2,0.5
	c0.1,0.5,0.3,0.8,0.4,0.9c0.1,0,0.2,0.1,0.2,0c0.1,0,0.1-0.1,0.1-0.2c0-0.1,0-0.2,0-0.3c0-0.1,0-0.2,0-0.3l0-0.2c0-0.1,0-0.2,0-0.4
	l0-0.2c-0.2,0-0.3-0.1-0.4-0.2c-0.1-0.1,0-0.2,0-0.4c0.1-0.1,0.2-0.3,0.3-0.4c0,0,0.1,0,0.2-0.1c0.1,0,0.2-0.1,0.3-0.1
	c0.1-0.1,0.2-0.1,0.3-0.2c0.3-0.3,0.4-0.5,0.3-0.7c0.1,0,0.2-0.1,0.2-0.2c0,0-0.1,0-0.1-0.1c-0.1,0-0.1-0.1-0.2-0.1
	c-0.1,0-0.1,0-0.1,0c0.1-0.1,0.1-0.2,0-0.3c0.1,0,0.1-0.1,0.2-0.2c0-0.1,0.1-0.2,0.2-0.2c0.1,0.2,0.3,0.2,0.4,0
	c0.1-0.1,0.1-0.2,0-0.3c0.1-0.1,0.2-0.2,0.4-0.2c0.2-0.1,0.3-0.1,0.4-0.2c0.1,0,0.1,0,0.2,0c0-0.1,0-0.1,0-0.2c0-0.1,0-0.2,0.1-0.2
	c0.1-0.1,0.2-0.1,0.3-0.2c0.1-0.1,0.2-0.1,0.3-0.1l0.3-0.2c0-0.1,0-0.1,0-0.1c0.2,0,0.4-0.1,0.6-0.2c0.1-0.1,0.1-0.3-0.1-0.4
	c0-0.1,0-0.1-0.1-0.2c-0.1-0.1-0.2-0.1-0.3-0.1c0,0,0.1,0,0.2,0c0.1,0,0.2,0,0.2,0c0.2-0.1,0.2-0.2-0.1-0.3
	C31.2,19.7,30.9,19.8,30.6,20L30.6,20z M27.3,37.8c2.8-0.5,5.2-1.8,7.1-3.8c0,0-0.1-0.1-0.3-0.1c-0.1,0-0.2,0-0.3-0.1
	c-0.2-0.1-0.4-0.1-0.5-0.2c0-0.1,0-0.2-0.1-0.3c-0.1-0.1-0.1-0.1-0.2-0.2c-0.1,0-0.1-0.1-0.3-0.2c-0.1-0.1-0.2-0.1-0.2-0.1
	c0,0-0.1-0.1-0.1-0.1c-0.1-0.1-0.1-0.1-0.1-0.1c0,0-0.1-0.1-0.2-0.1c-0.1,0-0.1-0.1-0.2,0c0,0-0.1,0-0.2,0l-0.1,0c0,0-0.1,0-0.1,0.1
	c0,0-0.1,0-0.1,0.1c0,0-0.1,0-0.1,0.1c0,0,0,0,0,0.1c-0.3-0.2-0.5-0.4-0.7-0.4c-0.1,0-0.1-0.1-0.2-0.1c-0.1-0.1-0.2-0.1-0.2-0.1
	c-0.1,0-0.1,0-0.2,0c-0.1,0-0.2,0.1-0.2,0.1c-0.1,0.1-0.1,0.2-0.1,0.3s0,0.2,0,0.3c-0.1-0.1-0.1-0.2,0-0.4c0.1-0.2,0.1-0.3,0-0.4
	c0-0.1-0.1-0.1-0.2-0.1c-0.1,0-0.2,0.1-0.2,0.1c-0.1,0-0.1,0.1-0.2,0.2c-0.1,0.1-0.2,0.1-0.2,0.1c0,0-0.1,0.1-0.2,0.1
	c-0.1,0.1-0.1,0.1-0.2,0.2c0,0.1-0.1,0.1-0.1,0.2c0,0.1-0.1,0.2-0.1,0.2c0-0.1-0.1-0.1-0.2-0.1c-0.1,0-0.2-0.1-0.2-0.1
	c0,0.1,0.1,0.4,0.1,0.7c0,0.3,0.1,0.6,0.1,0.8c0.1,0.4,0,0.7-0.2,1c-0.4,0.3-0.6,0.6-0.6,0.8c-0.1,0.3,0,0.5,0.2,0.5
	c0,0.1-0.1,0.2-0.2,0.4c-0.1,0.2-0.2,0.3-0.1,0.4C27.2,37.6,27.2,37.7,27.3,37.8L27.3,37.8z"/>
</svg>
