<?xml version="1.0" encoding="utf-8"?>
<!-- Generator: Adobe Illustrator 20.1.0, SVG Export Plug-In . SVG Version: 6.00 Build 0)  -->
<svg version="1.1" id="Слой_1" xmlns="http://www.w3.org/2000/svg" xmlns:xlink="http://www.w3.org/1999/xlink" x="0px" y="0px"
	 viewBox="0 0 50 50" style="enable-background:new 0 0 50 50;" xml:space="preserve">
<style type="text/css">
	.st0{fill-rule:evenodd;clip-rule:evenodd;fill:#FFFFFF;}
	.st1{fill:#FFFFFF;}
	.st2{fill:#FFFFFF;stroke:#727271;stroke-width:0.5;}
	.st3{fill:#7CCCE3;}
	.st4{fill:#9D9D9C;stroke:#FFFFFF;stroke-width:0.565;stroke-linecap:round;stroke-linejoin:round;}
	.st5{fill:#9ECA7D;}
	.st6{fill:#EF8F8F;}
	.st7{fill:#FAF199;}
	.st8{fill:#D7ABD0;}
	.st9{fill:#8C8B5A;}
	.st10{fill:#7DAEC6;}
	.st11{fill:#FBC780;}
	.st12{fill:#E7432A;}
	.st13{fill:#1F1F1F;}
	.st14{fill:#E2AF04;}
	.st15{fill:#020203;}
	.st16{fill-rule:evenodd;clip-rule:evenodd;fill:#1F1F1F;}
</style>
<g>
	<path class="st16" d="M42.8,41.9c0,1.1-0.7,2.1-1.5,2.1H8.7c-0.8,0-1.5-0.9-1.5-2.1l0,0c0-1.1,0.7-2.1,1.5-2.1h32.6
		C42.1,39.8,42.8,40.7,42.8,41.9L42.8,41.9L42.8,41.9z"/>
	<path class="st16" d="M8.8,38.9h17.9V6.1H8.8V38.9L8.8,38.9z M18.8,9.3H24v7.5h-5.2V9.3L18.8,9.3z M18.8,19H24v7.5h-5.2V19L18.8,19
		z M18.8,28.3H24v7.5h-5.2V28.3L18.8,28.3z M11.5,9.3h5.2v7.5h-5.2V9.3L11.5,9.3z M11.5,19h5.2v7.5h-5.2V19L11.5,19z M11.5,28.3h5.2
		v7.5h-5.2V28.3L11.5,28.3z"/>
	<path class="st16" d="M27.3,13v25.8h14V20.8L27.3,13L27.3,13z M33,36.9h-4.6v-6.7H33V36.9L33,36.9z M33,28.6h-4.6v-6.7H33V28.6
		L33,28.6z M39.3,36.9h-4.6v-6.7h4.6V36.9L39.3,36.9z M39.3,28.6h-4.6v-6.7h4.6V28.6L39.3,28.6z"/>
</g>
</svg>
