<?xml version="1.0" encoding="utf-8"?>
<!-- Generator: Adobe Illustrator 20.1.0, SVG Export Plug-In . SVG Version: 6.00 Build 0)  -->
<svg version="1.1" id="Слой_1" xmlns="http://www.w3.org/2000/svg" xmlns:xlink="http://www.w3.org/1999/xlink" x="0px" y="0px"
	 viewBox="0 0 50 50" style="enable-background:new 0 0 50 50;" xml:space="preserve">
<style type="text/css">
	.st0{fill-rule:evenodd;clip-rule:evenodd;fill:#FFFFFF;}
	.st1{fill:#FFFFFF;}
	.st2{fill:#FFFFFF;stroke:#727271;stroke-width:0.5;}
	.st3{fill:#7CCCE3;}
	.st4{fill:#9D9D9C;stroke:#FFFFFF;stroke-width:0.565;stroke-linecap:round;stroke-linejoin:round;}
	.st5{fill:#9ECA7D;}
	.st6{fill:#EF8F8F;}
	.st7{fill:#FAF199;}
	.st8{fill:#D7ABD0;}
	.st9{fill:#8C8B5A;}
	.st10{fill:#7DAEC6;}
	.st11{fill:#FBC780;}
	.st12{fill:#E7432A;}
	.st13{fill:#1F1F1F;}
	.st14{fill:#E2AF04;}
	.st15{fill:#020203;}
	.st16{fill-rule:evenodd;clip-rule:evenodd;fill:#1F1F1F;}
</style>
<g>
	<g>
		<path class="st16" d="M14.6,16.2c0.4,0.4,1.2,0.4,1.6,0c0.4-0.4,0.4-1.2,0-1.6l-2.4-2.4c-0.4-0.4-1.2-0.4-1.6,0
			c-0.4,0.4-0.4,1.2,0,1.6L14.6,16.2L14.6,16.2 M35.9,15.7l2.4-2.4c0.4-0.4,0.4-1.1,0-1.6c-0.4-0.4-1.1-0.4-1.6,0l-2.4,2.4
			c-0.4,0.4-0.4,1.1,0,1.6C34.7,16.1,35.4,16.1,35.9,15.7L35.9,15.7 M25,12.6c0.6,0,1.1-0.5,1.1-1.1V8c0-0.6-0.5-1.1-1.1-1.1
			c-0.6,0-1.1,0.5-1.1,1.1v3.4C23.9,12,24.4,12.6,25,12.6L25,12.6 M11.4,23.9H8c-0.6,0-1.1,0.5-1.1,1.1c0,0.6,0.5,1.1,1.1,1.1h3.4
			c0.6,0,1.1-0.5,1.1-1.1C12.6,24.4,12,23.9,11.4,23.9L11.4,23.9 M25,14.8c-5.6,0-10.2,4.6-10.2,10.2c0,5.6,4.6,10.2,10.2,10.2
			c5.6,0,10.2-4.6,10.2-10.2C35.2,19.4,30.6,14.8,25,14.8L25,14.8 M42,23.9h-3.4c-0.6,0-1.1,0.5-1.1,1.1c0,0.6,0.5,1.1,1.1,1.1H42
			c0.6,0,1.1-0.5,1.1-1.1C43.1,24.4,42.6,23.9,42,23.9L42,23.9 M35.4,33.8c-0.4-0.4-1.2-0.4-1.6,0c-0.4,0.4-0.4,1.2,0,1.6l2.4,2.4
			c0.4,0.4,1.2,0.4,1.6,0c0.4-0.4,0.4-1.2,0-1.6L35.4,33.8L35.4,33.8 M15.3,33.1l-2.4,2.4c-0.4,0.4-0.4,1.1,0,1.6
			c0.4,0.4,1.1,0.4,1.6,0l2.4-2.4c0.4-0.4,0.4-1.1,0-1.6C16.4,32.7,15.7,32.7,15.3,33.1L15.3,33.1 M25,37.4c-0.6,0-1.1,0.5-1.1,1.1
			V42c0,0.6,0.5,1.1,1.1,1.1c0.6,0,1.1-0.5,1.1-1.1v-3.4C26.1,38,25.6,37.4,25,37.4L25,37.4 M25,37.4"/>
	</g>
</g>
</svg>
