<?xml version="1.0" encoding="utf-8"?>
<!-- Generator: Adobe Illustrator 20.1.0, SVG Export Plug-In . SVG Version: 6.00 Build 0)  -->
<svg version="1.1" id="Слой_1" xmlns="http://www.w3.org/2000/svg" xmlns:xlink="http://www.w3.org/1999/xlink" x="0px" y="0px"
	 viewBox="0 0 50 50" style="enable-background:new 0 0 50 50;" xml:space="preserve">
<style type="text/css">
	.st0{fill-rule:evenodd;clip-rule:evenodd;fill:#FFFFFF;}
	.st1{fill:#FFFFFF;}
	.st2{fill:#FFFFFF;stroke:#727271;stroke-width:0.5;}
	.st3{fill:#7CCCE3;}
	.st4{fill:#9D9D9C;stroke:#FFFFFF;stroke-width:0.565;stroke-linecap:round;stroke-linejoin:round;}
	.st5{fill:#9ECA7D;}
	.st6{fill:#EF8F8F;}
	.st7{fill:#FAF199;}
	.st8{fill:#D7ABD0;}
	.st9{fill:#8C8B5A;}
	.st10{fill:#7DAEC6;}
	.st11{fill:#FBC780;}
	.st12{fill:#E7432A;}
	.st13{fill:#1F1F1F;}
	.st14{fill:#E2AF04;}
	.st15{fill:#020203;}
	.st16{fill-rule:evenodd;clip-rule:evenodd;fill:#1F1F1F;}
</style>
<g>
	<path class="st15" d="M19.6,28.3v15.7c0,1.3,1,2.3,2.3,2.3s2.3-1,2.3-2.3V33.8h1.6v10.2c0,1.3,1,2.3,2.3,2.3s2.3-1,2.3-2.3V28.3
		H19.6z"/>
	<path class="st15" d="M15.2,28.7c0,0.4,0,0.7,0,1.1c0,0.9,0.8,1.6,1.6,1.6c0,0,0,0,0,0c0.9,0,1.6-0.8,1.6-1.7c0-0.2,0-0.4,0-0.6
		L15.2,28.7C15.2,28.7,15.2,28.7,15.2,28.7z"/>
	<path class="st15" d="M19.6,21.8V27h10.9v-5.2c0.6,1.4,1,3.5,1.1,6.7l3.3-0.5c-0.1-5.1-1.3-8.1-2.7-9.9c-0.9-1.1-1.8-1.6-2.5-1.9
		c0,0,0,0,0,0c-0.5-0.2-0.9-0.3-1-0.3c-0.3,0-0.6,0-0.9,0.2c-0.3,1-1.4,1.7-2.7,1.7c-1.3,0-2.4-0.7-2.7-1.7
		c-0.3-0.1-0.6-0.2-0.9-0.2v0c-0.1,0-0.5,0.1-1,0.3c0,0,0,0,0,0C19.8,16.4,18.8,17,18,18c-1.4,1.8-2.6,4.8-2.7,9.9l3.3,0.5
		C18.5,25.2,19,23.1,19.6,21.8z"/>
	<path class="st15" d="M31.5,29.8c0,0.9,0.7,1.7,1.6,1.7c0,0,0,0,0,0c0.9,0,1.6-0.7,1.6-1.6c0-0.4,0-0.8,0-1.1c0,0,0,0,0,0l-3.3,0.5
		C31.5,29.4,31.5,29.6,31.5,29.8z"/>
	<path class="st15" d="M27.5,14.3c1.8-0.9,3.1-2.8,3.1-5c0-3.1-2.5-5.6-5.6-5.6c-3.1,0-5.6,2.5-5.6,5.6c0,2.2,1.3,4.1,3.1,5
		c0.7,0.4,1.6,0.6,2.5,0.6C25.9,14.9,26.7,14.7,27.5,14.3z"/>
</g>
</svg>
