<?xml version="1.0" encoding="utf-8"?>
<!-- Generator: Adobe Illustrator 20.1.0, SVG Export Plug-In . SVG Version: 6.00 Build 0)  -->
<svg version="1.1" id="Слой_1" xmlns="http://www.w3.org/2000/svg" xmlns:xlink="http://www.w3.org/1999/xlink" x="0px" y="0px"
	 viewBox="0 0 50 50" style="enable-background:new 0 0 50 50;" xml:space="preserve">
<style type="text/css">
	.st0{fill-rule:evenodd;clip-rule:evenodd;fill:#FFFFFF;}
	.st1{fill:#FFFFFF;}
	.st2{fill:#FFFFFF;stroke:#727271;stroke-width:0.5;}
	.st3{fill:#7CCCE3;}
	.st4{fill:#9D9D9C;stroke:#FFFFFF;stroke-width:0.565;stroke-linecap:round;stroke-linejoin:round;}
	.st5{fill:#9ECA7D;}
	.st6{fill:#EF8F8F;}
	.st7{fill:#FAF199;}
	.st8{fill:#D7ABD0;}
	.st9{fill:#8C8B5A;}
	.st10{fill:#7DAEC6;}
	.st11{fill:#FBC780;}
	.st12{fill:#E7432A;}
	.st13{fill:#1F1F1F;}
	.st14{fill:#E2AF04;}
	.st15{fill:#020203;}
	.st16{fill-rule:evenodd;clip-rule:evenodd;fill:#1F1F1F;}
</style>
<g>
	<path class="st16" d="M35.8,26.3c-1.9,0-3.4,1.5-3.4,3.4c0,1.9,1.5,3.4,3.4,3.4c1.9,0,3.4-1.5,3.4-3.4
		C39.2,27.8,37.7,26.3,35.8,26.3L35.8,26.3z M35.8,31.5c-1,0-1.9-0.8-1.9-1.9c0-1,0.8-1.9,1.9-1.9c1,0,1.9,0.8,1.9,1.9
		C37.7,30.7,36.8,31.5,35.8,31.5L35.8,31.5z"/>
	<path class="st16" d="M13.9,26.3c-1.9,0-3.4,1.5-3.4,3.4c0,1.9,1.5,3.4,3.4,3.4c1.9,0,3.4-1.5,3.4-3.4
		C17.3,27.8,15.8,26.3,13.9,26.3L13.9,26.3z M13.9,31.5c-1,0-1.9-0.8-1.9-1.9c0-1,0.8-1.9,1.9-1.9c1,0,1.9,0.8,1.9,1.9
		C15.8,30.7,14.9,31.5,13.9,31.5L13.9,31.5z"/>
	<path class="st16" d="M43.8,22.6c0,0-0.2-1-2-1.3c-0.8-0.1-1.7-0.5-2.4-0.9c-0.9-0.5-2.8-1.9-4.2-2.3c-1.6-0.5-4.2-1.1-5.6-1.1
		c-0.6,0-1.3,0-1.9,0c-3.7,0.1-5.1,0.7-7.1,1.4c-1.2,0.4-2.5,0.9-3.5,1.3c-3.4,1.5-2.8,1.2-4.7,1.8c-1.9,0.6-6,1.3-6.2,4.2
		C6,28.7,7,30.1,8.2,30h1.4c0-0.1,0-0.2,0-0.4c0-2.4,2-4.4,4.4-4.4c2.4,0,4.4,2,4.4,4.4c0,0.1,0,0.2,0,0.4h13.2c0-0.1,0-0.2,0-0.4
		c0-2.4,2-4.4,4.4-4.4c2.4,0,4.4,2,4.4,4.4c0,0.1,0,0.2,0,0.4h1.1c0,0,2.6,0.2,2.5-2.3C43.7,25.2,43.8,22.6,43.8,22.6L43.8,22.6z
		 M9.8,24.4c-1.6,0.2-2.7,1.4-2.7,1.4c-0.3-1.7,2.1-2.4,2.4-2.3C9.9,23.5,9.8,24.4,9.8,24.4L9.8,24.4z M17.2,22.1
		c-1.6-0.8,1.8-2.2,4.5-3.2c1.5-0.5,2.6-0.9,5.4-1l0,3.9C22.2,22,17.2,22.1,17.2,22.1L17.2,22.1z M28.1,21.8l0-3.9
		c1.2,0,2.4,0.1,3.3,0.2c0.8,0.1,1.7,0.3,2.5,0.6l0,2.9C32.3,21.7,30.3,21.8,28.1,21.8L28.1,21.8z M36.7,21.5
		c-0.1,0-0.7,0.1-1.8,0.1l0-2.5c0.7,0.3,1.5,0.7,1.8,0.9C37.4,20.5,37.1,21.4,36.7,21.5L36.7,21.5z"/>
</g>
</svg>
