<?xml version="1.0" encoding="utf-8"?>
<!-- Generator: Adobe Illustrator 20.1.0, SVG Export Plug-In . SVG Version: 6.00 Build 0)  -->
<svg version="1.1" id="Слой_1" xmlns="http://www.w3.org/2000/svg" xmlns:xlink="http://www.w3.org/1999/xlink" x="0px" y="0px"
	 viewBox="0 0 50 50" style="enable-background:new 0 0 50 50;" xml:space="preserve">
<style type="text/css">
	.st0{fill-rule:evenodd;clip-rule:evenodd;fill:#FFFFFF;}
	.st1{fill:#FFFFFF;}
	.st2{fill:#FFFFFF;stroke:#727271;stroke-width:0.5;}
	.st3{fill:#7CCCE3;}
	.st4{fill:#9D9D9C;stroke:#FFFFFF;stroke-width:0.565;stroke-linecap:round;stroke-linejoin:round;}
	.st5{fill:#9ECA7D;}
	.st6{fill:#EF8F8F;}
	.st7{fill:#FAF199;}
	.st8{fill:#D7ABD0;}
	.st9{fill:#8C8B5A;}
	.st10{fill:#7DAEC6;}
	.st11{fill:#FBC780;}
	.st12{fill:#E7432A;}
	.st13{fill:#1F1F1F;}
	.st14{fill:#E2AF04;}
	.st15{fill:#020203;}
	.st16{fill-rule:evenodd;clip-rule:evenodd;fill:#1F1F1F;}
</style>
<g>
	<g>
		<path class="st16" d="M10.6,36C10.6,36,10.6,36,10.6,36C10.6,36,10.6,36,10.6,36L10.6,36z"/>
		<path class="st16" d="M10.6,36C10.6,36,10.6,36,10.6,36C10.6,36,10.6,36,10.6,36L10.6,36z"/>
		<polygon class="st16" points="10.6,36 10.6,36 10.6,36 		"/>
		<path class="st16" d="M39.4,36.1C39.4,36.1,39.4,36.1,39.4,36.1C39.4,36.1,39.4,36.1,39.4,36.1L39.4,36.1z"/>
		<path class="st16" d="M39.4,36C39.4,36,39.4,36,39.4,36C39.4,36,39.4,36,39.4,36L39.4,36z"/>
		<path class="st16" d="M10.6,36.1C10.6,36.1,10.6,36.1,10.6,36.1C10.6,36.1,10.6,36.1,10.6,36.1L10.6,36.1z"/>
		<path class="st16" d="M32.3,25.7l-0.7,0c-0.2,0-0.6,0.1-0.8,0.2c0,0-0.5,0.3-1,0.5c-1.4,0.6-3.1,1-4.8,1c-1.7,0-3.4-0.3-4.8-1
			c-0.5-0.2-1-0.5-1-0.5c-0.2-0.1-0.6-0.2-0.8-0.2l-0.7,0c-2.6,0.3-5.4,2.7-6.2,5.2c0,0-0.8,1.7-1,5c0,0.4,0.3,1,0.8,1.2
			c0,0,4.5,2.9,13.6,2.9c9.1,0,13.6-2.9,13.6-2.9c0.4-0.2,0.8-0.9,0.8-1.2c-0.1-3.3-0.9-5-0.9-5C37.7,28.4,34.9,26.1,32.3,25.7
			L32.3,25.7z"/>
		<path class="st16" d="M39.4,36C39.4,36,39.4,36,39.4,36C39.4,36,39.4,36,39.4,36L39.4,36z"/>
		<path class="st16" d="M39.4,36C39.4,36,39.4,36,39.4,36C39.4,36,39.4,36,39.4,36L39.4,36z"/>
	</g>
	<circle class="st16" cx="25" cy="17.6" r="7.7"/>
</g>
</svg>
