<?xml version="1.0" encoding="utf-8"?>
<!-- Generator: Adobe Illustrator 20.1.0, SVG Export Plug-In . SVG Version: 6.00 Build 0)  -->
<svg version="1.1" id="Слой_1" xmlns="http://www.w3.org/2000/svg" xmlns:xlink="http://www.w3.org/1999/xlink" x="0px" y="0px"
	 viewBox="0 0 50 50" style="enable-background:new 0 0 50 50;" xml:space="preserve">
<style type="text/css">
	.st0{fill-rule:evenodd;clip-rule:evenodd;fill:#FFFFFF;}
	.st1{fill:#FFFFFF;}
	.st2{fill:#FFFFFF;stroke:#727271;stroke-width:0.5;}
	.st3{fill:#7CCCE3;}
	.st4{fill:#9D9D9C;stroke:#FFFFFF;stroke-width:0.565;stroke-linecap:round;stroke-linejoin:round;}
	.st5{fill:#9ECA7D;}
	.st6{fill:#EF8F8F;}
	.st7{fill:#FAF199;}
	.st8{fill:#D7ABD0;}
	.st9{fill:#8C8B5A;}
	.st10{fill:#7DAEC6;}
	.st11{fill:#FBC780;}
	.st12{fill:#E7432A;}
	.st13{fill:#1F1F1F;}
	.st14{fill:#E2AF04;}
	.st15{fill:#020203;}
	.st16{fill-rule:evenodd;clip-rule:evenodd;fill:#1F1F1F;}
</style>
<path class="st16" d="M32,34h-3.5v3.5H32V34z M32,28.8h-3.5v3.5H32V28.8z M37.2,28.8h-3.5v3.5h3.5V28.8z M32,23.6h-3.5v3.5H32V23.6z
	 M34.7,17c1,0,1.7-0.8,1.7-1.7V9.7c0-1-0.8-1.7-1.7-1.7c-1,0-1.7,0.8-1.7,1.7v5.6C33,16.2,33.8,17,34.7,17z M15.3,17
	c1,0,1.7-0.8,1.7-1.7V9.7c0-1-0.8-1.7-1.7-1.7c-1,0-1.7,0.8-1.7,1.7v5.6C13.5,16.2,14.3,17,15.3,17z M37.2,23.6h-3.5v3.5h3.5V23.6z
	 M16.3,34h-3.5v3.5h3.5V34z M16.3,28.8h-3.5v3.5h3.5V28.8z M39,11.4h-2.2v2c0.4,0.5,0.7,1.1,0.7,1.8c0,1.5-1.2,2.8-2.8,2.8
	c-1.5,0-2.8-1.2-2.8-2.8c0-0.7,0.3-1.3,0.7-1.8v-2H17.3v2c0.4,0.5,0.7,1.1,0.7,1.8c0,1.5-1.2,2.8-2.8,2.8s-2.8-1.2-2.8-2.8
	c0-0.7,0.3-1.3,0.7-1.8v-2H11c-1.7,0-3.1,1.4-3.1,3.1V39C8,40.7,9.3,42,11,42h28c1.7,0,3.1-1.4,3.1-3.1V14.5
	C42,12.8,40.7,11.4,39,11.4z M40,36.9c0,1.7-1.4,3.1-3.1,3.1H13.1c-1.7,0-3.1-1.4-3.1-3.1V20.5H40V36.9z M21.5,34H18v3.5h3.5V34z
	 M21.5,28.8H18v3.5h3.5V28.8z M26.7,28.8h-3.5v3.5h3.5V28.8z M26.7,34h-3.5v3.5h3.5V34z M26.7,23.6h-3.5v3.5h3.5V23.6z"/>
</svg>
