<?xml version="1.0" encoding="utf-8"?>
<!-- Generator: Adobe Illustrator 20.1.0, SVG Export Plug-In . SVG Version: 6.00 Build 0)  -->
<svg version="1.1" id="Слой_1" xmlns="http://www.w3.org/2000/svg" xmlns:xlink="http://www.w3.org/1999/xlink" x="0px" y="0px"
	 viewBox="0 0 50 50" style="enable-background:new 0 0 50 50;" xml:space="preserve">
<style type="text/css">
	.st0{fill-rule:evenodd;clip-rule:evenodd;fill:#FFFFFF;}
	.st1{fill:#FFFFFF;}
	.st2{fill:#FFFFFF;stroke:#727271;stroke-width:0.5;}
	.st3{fill:#7CCCE3;}
	.st4{fill:#9D9D9C;stroke:#FFFFFF;stroke-width:0.565;stroke-linecap:round;stroke-linejoin:round;}
	.st5{fill:#9ECA7D;}
	.st6{fill:#EF8F8F;}
	.st7{fill:#FAF199;}
	.st8{fill:#D7ABD0;}
	.st9{fill:#8C8B5A;}
	.st10{fill:#7DAEC6;}
	.st11{fill:#FBC780;}
	.st12{fill:#E7432A;}
	.st13{fill:#1F1F1F;}
	.st14{fill:#E2AF04;}
	.st15{fill:#020203;}
	.st16{fill-rule:evenodd;clip-rule:evenodd;fill:#1F1F1F;}
</style>
<g>
	<path class="st16" d="M30.9,12.6c-2.2,0-4.3,0.9-5.9,2.4c-1.6-1.5-3.7-2.4-5.9-2.4c-4.7,0-8.5,3.8-8.5,8.5c0,2.7,1.3,5.2,3.4,6.8
		l10.4,9.2c0.2,0.2,0.4,0.2,0.6,0.2c0.2,0,0.5-0.1,0.6-0.2L36,27.9c2.1-1.6,3.4-4.2,3.4-6.8C39.5,16.4,35.6,12.6,30.9,12.6
		L30.9,12.6L30.9,12.6z"/>
</g>
</svg>
