<?xml version="1.0" encoding="utf-8"?>
<!-- Generator: Adobe Illustrator 20.1.0, SVG Export Plug-In . SVG Version: 6.00 Build 0)  -->
<svg version="1.1" id="Слой_1" xmlns="http://www.w3.org/2000/svg" xmlns:xlink="http://www.w3.org/1999/xlink" x="0px" y="0px"
	 viewBox="0 0 50 50" style="enable-background:new 0 0 50 50;" xml:space="preserve">
<style type="text/css">
	.st0{fill-rule:evenodd;clip-rule:evenodd;fill:#FFFFFF;}
	.st1{fill:#FFFFFF;}
	.st2{fill:#FFFFFF;stroke:#727271;stroke-width:0.5;}
	.st3{fill:#7CCCE3;}
	.st4{fill:#9D9D9C;stroke:#FFFFFF;stroke-width:0.565;stroke-linecap:round;stroke-linejoin:round;}
	.st5{fill:#9ECA7D;}
	.st6{fill:#EF8F8F;}
	.st7{fill:#FAF199;}
	.st8{fill:#D7ABD0;}
	.st9{fill:#8C8B5A;}
	.st10{fill:#7DAEC6;}
	.st11{fill:#FBC780;}
	.st12{fill:#E7432A;}
	.st13{fill:#1F1F1F;}
	.st14{fill:#E2AF04;}
	.st15{fill:#020203;}
	.st16{fill-rule:evenodd;clip-rule:evenodd;fill:#1F1F1F;}
</style>
<g>
	<circle class="st15" cx="25" cy="14.6" r="4.2"/>
	<path class="st15" d="M16.1,28.2c0.3,0,0.7-0.1,1-0.4l3.8-3.5v3.4h8.2v-3.4l3.8,3.5c0.3,0.3,0.6,0.4,1,0.4c0.4,0,0.8-0.2,1-0.5
		c0.5-0.6,0.5-1.5-0.1-2l-5.9-5.4c-0.1-0.1-0.2-0.1-0.2-0.2c-0.2-0.2-0.5-0.4-0.9-0.4h-5.7c-0.3,0-0.6,0.1-0.9,0.4
		c-0.1,0-0.2,0.1-0.2,0.2l-5.9,5.4c-0.6,0.5-0.6,1.4-0.1,2C15.4,28.1,15.7,28.2,16.1,28.2z"/>
	<path class="st15" d="M18.3,31.6c-0.7,0.6-0.9,1.5-0.5,2.3l2,4.6c0.3,0.7,1.1,1.2,1.8,1.2c0.3,0,0.5-0.1,0.8-0.2
		c1-0.4,1.5-1.6,1-2.6l-1.4-3.2l1.6-1.4l-3.1-2.6L18.3,31.6z"/>
	<path class="st15" d="M27.9,33.6l-1.4,3.2c-0.4,1,0,2.2,1,2.6c0.3,0.1,0.5,0.2,0.8,0.2c0.8,0,1.5-0.4,1.8-1.2l2-4.6
		c0.3-0.8,0.1-1.7-0.5-2.3l-2.2-1.9l-3.1,2.6L27.9,33.6z"/>
</g>
</svg>
