<?xml version="1.0" encoding="utf-8"?>
<!-- Generator: Adobe Illustrator 20.1.0, SVG Export Plug-In . SVG Version: 6.00 Build 0)  -->
<svg version="1.1" id="Слой_1" xmlns="http://www.w3.org/2000/svg" xmlns:xlink="http://www.w3.org/1999/xlink" x="0px" y="0px"
	 viewBox="0 0 50 50" style="enable-background:new 0 0 50 50;" xml:space="preserve">
<style type="text/css">
	.st0{fill-rule:evenodd;clip-rule:evenodd;fill:#FFFFFF;}
	.st1{fill:#FFFFFF;}
	.st2{fill:#FFFFFF;stroke:#727271;stroke-width:0.5;}
	.st3{fill:#7CCCE3;}
	.st4{fill:#9D9D9C;stroke:#FFFFFF;stroke-width:0.565;stroke-linecap:round;stroke-linejoin:round;}
	.st5{fill:#9ECA7D;}
	.st6{fill:#EF8F8F;}
	.st7{fill:#FAF199;}
	.st8{fill:#D7ABD0;}
	.st9{fill:#8C8B5A;}
	.st10{fill:#7DAEC6;}
	.st11{fill:#FBC780;}
	.st12{fill:#E7432A;}
	.st13{fill:#1F1F1F;}
	.st14{fill:#E2AF04;}
	.st15{fill:#020203;}
	.st16{fill-rule:evenodd;clip-rule:evenodd;fill:#1F1F1F;}
</style>
<g>
	<path class="st16" d="M42.1,14.2c-0.7-1.4-4.4-1.7-6.2-0.8l-20.3,9.7L9.2,21c-0.9,0.4-1.5,0.7-1.5,0.7s3,3.6,5.5,5.6
		c1.2,1,7.9-0.8,10.9-2.2l1.7-0.8l-1.3,12.5c0,0.3,0.1,0.4,0.4,0.3l2.5-1.2c0.2-0.1,0.5-0.4,0.6-0.6l5-14.4l6.7-3.2
		C41.5,16.8,42.6,15.1,42.1,14.2L42.1,14.2 M42.1,14.2"/>
	<path class="st16" d="M15.3,15.5l5.5,3.5l5.4-2.6l-7.5-2.6c-0.2-0.1-0.6-0.1-0.9,0L15.3,15C15.1,15.1,15.1,15.3,15.3,15.5
		L15.3,15.5 M15.3,15.5"/>
</g>
</svg>
