<?xml version="1.0" encoding="utf-8"?>
<!-- Generator: Adobe Illustrator 20.1.0, SVG Export Plug-In . SVG Version: 6.00 Build 0)  -->
<svg version="1.1" id="Слой_1" xmlns="http://www.w3.org/2000/svg" xmlns:xlink="http://www.w3.org/1999/xlink" x="0px" y="0px"
	 viewBox="0 0 50 50" style="enable-background:new 0 0 50 50;" xml:space="preserve">
<style type="text/css">
	.st0{fill-rule:evenodd;clip-rule:evenodd;fill:#FFFFFF;}
	.st1{fill:#FFFFFF;}
	.st2{fill:#FFFFFF;stroke:#727271;stroke-width:0.5;}
	.st3{fill:#7CCCE3;}
	.st4{fill:#9D9D9C;stroke:#FFFFFF;stroke-width:0.565;stroke-linecap:round;stroke-linejoin:round;}
	.st5{fill:#9ECA7D;}
	.st6{fill:#EF8F8F;}
	.st7{fill:#FAF199;}
	.st8{fill:#D7ABD0;}
	.st9{fill:#8C8B5A;}
	.st10{fill:#7DAEC6;}
	.st11{fill:#FBC780;}
	.st12{fill:#E7432A;}
	.st13{fill:#1F1F1F;}
	.st14{fill:#E2AF04;}
	.st15{fill:#020203;}
	.st16{fill-rule:evenodd;clip-rule:evenodd;fill:#1F1F1F;}
</style>
<g>
	<g>
		<path class="st13" d="M19.8,27v19.9c0,1.3,1.1,2.4,2.4,2.4c1.3,0,2.4-1.1,2.4-2.4v-18h0.9v18c0,1.3,1.1,2.4,2.4,2.4
			c1.3,0,2.4-1.1,2.4-2.4V27H19.8z"/>
		<path class="st13" d="M15.4,29.8c0,0.8,0.7,1.5,1.6,1.5c0,0,0.1,0,0.1,0c0.9,0,1.5-0.8,1.5-1.7c0-0.5,0-0.9-0.1-1.3l-3.2-0.5
			C15.3,28.5,15.4,29.1,15.4,29.8z"/>
		<path class="st13" d="M18.4,25.5c0-5.2,0.7-8.1,1.3-9.6v10.1h10.5v-10c0.2,0.3,0.3,0.8,0.4,1.2c0.5,1.7,0.9,4.3,0.9,8.3
			c0,0.6,0,1.3,0,2.1l3.2-0.5c0-0.6,0-1.1,0-1.6c0-6.3-0.9-9.7-2.1-11.8c-0.6-1-1.3-1.7-2-2.1c-0.6-0.4-1.2-0.5-1.6-0.5
			c-0.1,0-0.2,0-0.3,0h-1.3c-0.2,1.9-2.4,3.4-2.4,3.4s-2.2-1.5-2.4-3.4h-1.4c-0.1,0-0.2,0-0.3,0c0,0-0.1,0-0.1,0
			c-0.4,0-1,0.1-1.6,0.5c-1,0.6-2,1.8-2.7,3.9c-0.7,2.1-1.2,5.2-1.2,9.9c0,0.5,0,1.1,0,1.7l3.2,0.5C18.4,27,18.4,26.2,18.4,25.5z"/>
		<path class="st13" d="M31.5,29.6c0,0.9,0.6,1.6,1.5,1.7c0,0,0.1,0,0.1,0c0.8,0,1.5-0.7,1.6-1.5c0-0.7,0.1-1.3,0.1-1.9l-3.2,0.5
			C31.5,28.8,31.5,29.2,31.5,29.6z"/>
		<path class="st13" d="M27.2,9.6c1.5-0.8,2.5-2.4,2.5-4.2c0-2.6-2.1-4.7-4.7-4.7c-2.6,0-4.7,2.1-4.7,4.7c0,1.8,1,3.4,2.6,4.2
			c0.6,0.3,1.4,0.5,2.2,0.5C25.8,10.1,26.6,9.9,27.2,9.6z"/>
	</g>
</g>
</svg>
